<svg width="179" height="183" viewBox="0 0 179 183" fill="none" xmlns="http://www.w3.org/2000/svg">
<path d="M178.5 91.5C178.5 141.768 138.643 182.5 89.5 182.5C40.357 182.5 0.5 141.768 0.5 91.5C0.5 41.2316 40.357 0.5 89.5 0.5C138.643 0.5 178.5 41.2316 178.5 91.5Z" fill="#232931" stroke="#4ECCA3"/>
<path d="M38.5921 104.261C38.5921 132.148 59.0503 149.5 87.373 149.5C115.696 149.5 137.592 128.887 137.592 101" stroke="#4ECCA3" stroke-width="2"/>
<path d="M107.373 42C102.51 47.8679 100.134 47.7933 100.134 47.7933C84.2761 51.0023 85.069 49.627 80.3115 49.627C75.554 49.627 75.554 49.9417 72.118 56.8182C68.682 63.6946 59.3079 65.676 55.079 66.3636C51.6959 66.9138 49.488 71.5909 46.5595 76.1364C40.9685 81.3636 38.373 87.9573 38.373 93" stroke="#4ECCA3" stroke-width="2"/>
<path d="M107.407 40.6417C108.534 58.9572 122.059 49.6586 124.032 53.0399C126.004 56.4212 129.949 59.8026 133.049 70.7919C136.148 81.7812 135.866 78.3998 135.866 86.0078C135.866 93.6158 130.231 99.2513 134.739 93.334C139.248 87.4167 135.137 90.2679 139.248 87.6985C148.265 82.0629 150.873 92.2998 150.873 98.5C150.028 104.136 146.574 110.522 137.839 109.395" stroke="#4ECCA3" stroke-width="2"/>
<path d="M110.374 19C108.487 17.5631 96.1283 15.0253 96.1283 15.0253C96.1283 15.0253 77.5651 14.4654 67.0204 18.6176C57.5627 22.3417 49.6332 26.8941 45.998 33.2264C42.3628 39.5586 39.2469 44.5795 38.2083 47.2084C37.1696 49.8373 34.1819 52.3948 30.6782 57.9631C27.1744 63.5313 28.1378 73.7018 30.6782 81.5C32.8309 88.1082 38.2083 92 38.2083 92M110.306 18.951C111.758 20.0736 115.31 23.3375 116.375 23.9924C117.44 24.6473 126.436 22.8325 132.058 24.5537C142.698 27.8109 144.681 36.7087 149.483 46.4454C153.578 54.7502 155.93 59.9796 155.872 69.1792C155.823 76.8358 149.483 90.5 149.483 90.5" stroke="#4ECCA3" stroke-width="2"/>
<path d="M140.509 109C140.509 109 137.471 118.158 138.264 124.043C139.099 130.247 145 132.581 145 138.831C145 145.081 137.39 147.78 136.285 153.949C135.511 158.274 136.558 164 136.558 164" stroke="#4ECCA3" stroke-width="2"/>
<path d="M38.2076 109C38.2076 109 41.3504 118.243 40.5309 124.183C39.667 130.444 33.5608 132.8 33.5608 139.108C33.5608 145.416 41.4347 148.14 42.5777 154.366C43.3789 158.73 42.2959 164.51 42.2959 164.51" stroke="#4ECCA3" stroke-width="2"/>
<rect x="64.5921" y="93" width="8.45331" height="16.9066" rx="4.22666" fill="#4ECCA3"/>
<path d="M101.592 97.2267C101.592 94.8923 103.484 93 105.819 93V93C108.153 93 110.045 94.8923 110.045 97.2267V105.68C110.045 108.014 108.153 109.907 105.819 109.907V109.907C103.484 109.907 101.592 108.014 101.592 105.68V97.2267Z" fill="#4ECCA3"/>
<path d="M38.592 110C38.592 110 28.5522 109.932 26.373 103C24.8226 98.0681 23.6212 90.0365 28.373 88C31.873 86.5001 34.0921 88 34.0921 88" stroke="#4ECCA3" stroke-width="2"/>
</svg>
